<?xml version="1.0" encoding="utf-8" standalone="no"?>
<!DOCTYPE svg PUBLIC "-//W3C//DTD SVG 1.1//EN"
  "http://www.w3.org/Graphics/SVG/1.1/DTD/svg11.dtd">
<!-- Created with matplotlib (https://matplotlib.org/) -->
<svg height="345.6pt" version="1.1" viewBox="0 0 460.8 345.6" width="460.8pt" xmlns="http://www.w3.org/2000/svg" xmlns:xlink="http://www.w3.org/1999/xlink">
 <defs>
  <style type="text/css">
*{stroke-linecap:butt;stroke-linejoin:round;}
  </style>
 </defs>
 <g id="figure_1">
  <g id="patch_1">
   <path d="M 0 345.6 
L 460.8 345.6 
L 460.8 0 
L 0 0 
z
" style="fill:#ffffff;"/>
  </g>
  <g id="axes_1">
   <g id="patch_2">
    <path d="M 57.6 307.584 
L 414.72 307.584 
L 414.72 41.472 
L 57.6 41.472 
z
" style="fill:#eaeaf2;"/>
   </g>
   <g id="matplotlib.axis_1">
    <g id="xtick_1">
     <g id="line2d_1">
      <path clip-path="url(#p290e100f2b)" d="M 73.832727 307.584 
L 73.832727 41.472 
" style="fill:none;stroke:#ffffff;stroke-linecap:round;"/>
     </g>
     <g id="text_1">
      <!-- $\mathdefault{10^{0}}$ -->
      <defs>
       <path d="M 21.875 56.25 
Q 16.796875 51.171875 8.984375 46.484375 
L 8.984375 53.90625 
Q 18.75 60.546875 25 69.53125 
L 29.6875 69.53125 
L 29.6875 2.34375 
L 21.875 2.34375 
z
" id="SimHei-49"/>
       <path d="M 3.125 29.296875 
Q 3.90625 50 6.4375 56.046875 
Q 8.984375 62.109375 13.671875 66.015625 
Q 18.359375 69.921875 25.1875 69.921875 
Q 32.03125 69.921875 37.109375 64.25 
Q 42.1875 58.59375 43.75 50 
Q 45.3125 41.40625 44.71875 30.265625 
Q 44.140625 19.140625 40.8125 12.109375 
Q 37.5 5.078125 30.859375 2.34375 
Q 24.21875 -0.390625 17.578125 2.921875 
Q 10.9375 6.25 8.203125 11.71875 
Q 5.46875 17.1875 4.296875 23.234375 
Q 3.125 29.296875 3.90625 50 
z
M 12.890625 52.734375 
Q 10.546875 31.25 12.5 22.84375 
Q 14.453125 14.453125 18.9375 10.9375 
Q 23.4375 7.421875 28.125 9.5625 
Q 32.8125 11.71875 34.953125 18.15625 
Q 37.109375 24.609375 37.109375 32.21875 
Q 37.109375 39.84375 36.515625 46.09375 
Q 35.9375 52.34375 33 57.421875 
Q 30.078125 62.5 25.1875 62.6875 
Q 20.3125 62.890625 16.59375 57.8125 
Q 12.890625 52.734375 10.546875 31.25 
z
" id="SimHei-48"/>
      </defs>
      <g style="fill:#262626;" transform="translate(66.187727 324.729)scale(0.11 -0.11)">
       <use transform="translate(0 0.0625)" xlink:href="#SimHei-49"/>
       <use transform="translate(50 0.0625)" xlink:href="#SimHei-48"/>
       <use transform="translate(100.799805 32.054688)scale(0.7)" xlink:href="#SimHei-48"/>
      </g>
     </g>
    </g>
    <g id="xtick_2">
     <g id="line2d_2">
      <path clip-path="url(#p290e100f2b)" d="M 120.211948 307.584 
L 120.211948 41.472 
" style="fill:none;stroke:#ffffff;stroke-linecap:round;"/>
     </g>
     <g id="text_2">
      <!-- $\mathdefault{10^{1}}$ -->
      <g style="fill:#262626;" transform="translate(112.566948 324.729)scale(0.11 -0.11)">
       <use transform="translate(0 0.335938)" xlink:href="#SimHei-49"/>
       <use transform="translate(50 0.335938)" xlink:href="#SimHei-48"/>
       <use transform="translate(100.799805 32.328125)scale(0.7)" xlink:href="#SimHei-49"/>
      </g>
     </g>
    </g>
    <g id="xtick_3">
     <g id="line2d_3">
      <path clip-path="url(#p290e100f2b)" d="M 166.591169 307.584 
L 166.591169 41.472 
" style="fill:none;stroke:#ffffff;stroke-linecap:round;"/>
     </g>
     <g id="text_3">
      <!-- $\mathdefault{10^{2}}$ -->
      <defs>
       <path d="M 4.6875 3.90625 
Q 5.078125 9.765625 10.15625 14.453125 
Q 15.234375 19.140625 23.046875 29.09375 
Q 30.859375 39.0625 33.203125 44.53125 
Q 35.546875 50 34.953125 53.90625 
Q 34.375 57.8125 31.25 60.34375 
Q 28.125 62.890625 24.015625 62.5 
Q 19.921875 62.109375 16.203125 59.375 
Q 12.5 56.640625 10.546875 51.171875 
L 3.125 52.34375 
Q 6.25 61.328125 11.125 65.421875 
Q 16.015625 69.53125 22.65625 69.921875 
Q 26.5625 70.3125 29.6875 69.71875 
Q 32.8125 69.140625 36.125 66.984375 
Q 39.453125 64.84375 41.59375 60.546875 
Q 43.75 56.25 43.15625 50.1875 
Q 42.578125 44.140625 37.109375 35.734375 
Q 31.640625 27.34375 16.015625 9.375 
L 44.140625 9.375 
L 44.140625 2.34375 
L 4.6875 2.34375 
z
" id="SimHei-50"/>
      </defs>
      <g style="fill:#262626;" transform="translate(158.946169 324.839)scale(0.11 -0.11)">
       <use transform="translate(0 0.789062)" xlink:href="#SimHei-49"/>
       <use transform="translate(50 0.789062)" xlink:href="#SimHei-48"/>
       <use transform="translate(100.799805 32.78125)scale(0.7)" xlink:href="#SimHei-50"/>
      </g>
     </g>
    </g>
    <g id="xtick_4">
     <g id="line2d_4">
      <path clip-path="url(#p290e100f2b)" d="M 212.97039 307.584 
L 212.97039 41.472 
" style="fill:none;stroke:#ffffff;stroke-linecap:round;"/>
     </g>
     <g id="text_4">
      <!-- $\mathdefault{10^{3}}$ -->
      <defs>
       <path d="M 3.90625 19.140625 
L 10.9375 20.3125 
Q 12.5 15.234375 16.015625 11.90625 
Q 19.53125 8.59375 24.796875 8.78125 
Q 30.078125 8.984375 33.203125 13.078125 
Q 36.328125 17.1875 35.9375 22.453125 
Q 35.546875 27.734375 31.828125 30.65625 
Q 28.125 33.59375 19.921875 34.765625 
L 19.921875 39.84375 
Q 28.125 40.625 31.828125 44.140625 
Q 35.546875 47.65625 35.15625 53.3125 
Q 34.765625 58.984375 30.078125 61.515625 
Q 25.390625 64.0625 20.109375 62.109375 
Q 14.84375 60.15625 11.71875 51.171875 
L 4.6875 52.34375 
Q 7.03125 59.375 11.125 64.0625 
Q 15.234375 68.75 22.265625 69.53125 
Q 29.296875 70.3125 34.5625 67.765625 
Q 39.84375 65.234375 41.984375 59.953125 
Q 44.140625 54.6875 42.578125 48.4375 
Q 41.015625 42.1875 33.59375 37.5 
Q 39.0625 35.15625 41.984375 30.46875 
Q 44.921875 25.78125 43.9375 18.15625 
Q 42.96875 10.546875 37.109375 5.859375 
Q 31.25 1.171875 23.828125 1.359375 
Q 16.40625 1.5625 10.9375 6.046875 
Q 5.46875 10.546875 3.90625 19.140625 
z
" id="SimHei-51"/>
      </defs>
      <g style="fill:#262626;" transform="translate(205.32539 324.839)scale(0.11 -0.11)">
       <use transform="translate(0 0.789062)" xlink:href="#SimHei-49"/>
       <use transform="translate(50 0.789062)" xlink:href="#SimHei-48"/>
       <use transform="translate(100.799805 32.78125)scale(0.7)" xlink:href="#SimHei-51"/>
      </g>
     </g>
    </g>
    <g id="xtick_5">
     <g id="line2d_5">
      <path clip-path="url(#p290e100f2b)" d="M 259.34961 307.584 
L 259.34961 41.472 
" style="fill:none;stroke:#ffffff;stroke-linecap:round;"/>
     </g>
     <g id="text_5">
      <!-- $\mathdefault{10^{4}}$ -->
      <defs>
       <path d="M 31.25 17.1875 
L 1.171875 17.1875 
L 1.171875 23.828125 
L 32.8125 69.53125 
L 38.671875 69.53125 
L 38.671875 23.828125 
L 48.046875 23.828125 
L 48.046875 17.1875 
L 38.671875 17.1875 
L 38.671875 2.34375 
L 31.25 2.34375 
z
M 31.25 23.828125 
L 31.25 54.6875 
L 9.375 23.828125 
z
" id="SimHei-52"/>
      </defs>
      <g style="fill:#262626;" transform="translate(251.70461 324.729)scale(0.11 -0.11)">
       <use transform="translate(0 0.335938)" xlink:href="#SimHei-49"/>
       <use transform="translate(50 0.335938)" xlink:href="#SimHei-48"/>
       <use transform="translate(100.799805 32.328125)scale(0.7)" xlink:href="#SimHei-52"/>
      </g>
     </g>
    </g>
    <g id="xtick_6">
     <g id="line2d_6">
      <path clip-path="url(#p290e100f2b)" d="M 305.728831 307.584 
L 305.728831 41.472 
" style="fill:none;stroke:#ffffff;stroke-linecap:round;"/>
     </g>
     <g id="text_6">
      <!-- $\mathdefault{10^{5}}$ -->
      <defs>
       <path d="M 8.59375 20.703125 
Q 11.328125 10.15625 17.96875 8.984375 
Q 24.609375 7.8125 28.703125 10.34375 
Q 32.8125 12.890625 34.5625 16.984375 
Q 36.328125 21.09375 36.125 26.171875 
Q 35.9375 31.25 33.390625 34.765625 
Q 30.859375 38.28125 26.953125 39.453125 
Q 23.046875 40.625 18.15625 39.453125 
Q 13.28125 38.28125 10.15625 33.984375 
L 3.515625 34.765625 
Q 4.296875 37.109375 10.9375 68.359375 
L 41.796875 68.359375 
L 41.796875 61.328125 
L 16.796875 61.328125 
Q 14.84375 50.78125 12.890625 44.53125 
Q 18.75 47.265625 23.828125 47.0625 
Q 28.90625 46.875 33.59375 44.71875 
Q 38.28125 42.578125 40.421875 38.859375 
Q 42.578125 35.15625 43.546875 31.4375 
Q 44.53125 27.734375 44.328125 23.4375 
Q 44.140625 19.140625 42.578125 14.640625 
Q 41.015625 10.15625 37.890625 7.21875 
Q 34.765625 4.296875 30.265625 2.53125 
Q 25.78125 0.78125 19.921875 1.171875 
Q 14.0625 1.5625 8.78125 5.46875 
Q 3.515625 9.375 1.5625 18.75 
z
" id="SimHei-53"/>
      </defs>
      <g style="fill:#262626;" transform="translate(298.083831 324.6465)scale(0.11 -0.11)">
       <use transform="translate(0 0.15625)" xlink:href="#SimHei-49"/>
       <use transform="translate(50 0.15625)" xlink:href="#SimHei-48"/>
       <use transform="translate(100.799805 32.148438)scale(0.7)" xlink:href="#SimHei-53"/>
      </g>
     </g>
    </g>
    <g id="xtick_7">
     <g id="line2d_7">
      <path clip-path="url(#p290e100f2b)" d="M 352.108052 307.584 
L 352.108052 41.472 
" style="fill:none;stroke:#ffffff;stroke-linecap:round;"/>
     </g>
     <g id="text_7">
      <!-- $\mathdefault{10^{6}}$ -->
      <defs>
       <path d="M 3.515625 19.53125 
Q 4.296875 30.859375 6.046875 34.765625 
Q 7.8125 38.671875 11.328125 44.53125 
L 27.34375 69.53125 
L 36.328125 69.53125 
L 19.921875 43.75 
Q 30.46875 46.484375 36.71875 42.96875 
Q 42.96875 39.453125 45.109375 34.953125 
Q 47.265625 30.46875 47.453125 25.1875 
Q 47.65625 19.921875 45.890625 14.84375 
Q 44.140625 9.765625 39.640625 5.65625 
Q 35.15625 1.5625 27.140625 1.171875 
Q 19.140625 0.78125 13.46875 4.09375 
Q 7.8125 7.421875 5.65625 13.46875 
Q 3.515625 19.53125 4.296875 30.859375 
z
M 12.5 16.015625 
Q 19.53125 8.59375 25.390625 8.203125 
Q 31.25 7.8125 35.15625 12.109375 
Q 39.0625 16.40625 39.0625 24.609375 
Q 39.0625 32.8125 34.171875 35.9375 
Q 29.296875 39.0625 23.234375 38.28125 
Q 17.1875 37.5 14.453125 32.421875 
Q 11.71875 27.34375 12.109375 21.671875 
Q 12.5 16.015625 19.53125 8.59375 
z
" id="SimHei-54"/>
      </defs>
      <g style="fill:#262626;" transform="translate(344.463052 324.729)scale(0.11 -0.11)">
       <use transform="translate(0 0.335938)" xlink:href="#SimHei-49"/>
       <use transform="translate(50 0.335938)" xlink:href="#SimHei-48"/>
       <use transform="translate(100.799805 32.328125)scale(0.7)" xlink:href="#SimHei-54"/>
      </g>
     </g>
    </g>
    <g id="xtick_8">
     <g id="line2d_8">
      <path clip-path="url(#p290e100f2b)" d="M 398.487273 307.584 
L 398.487273 41.472 
" style="fill:none;stroke:#ffffff;stroke-linecap:round;"/>
     </g>
     <g id="text_8">
      <!-- $\mathdefault{10^{7}}$ -->
      <defs>
       <path d="M 13.28125 2.34375 
Q 20.3125 32.03125 37.890625 61.328125 
L 4.296875 61.328125 
L 4.296875 68.359375 
L 46.09375 68.359375 
L 46.09375 61.71875 
Q 27.734375 32.03125 21.875 2.34375 
L 13.28125 2.34375 
z
" id="SimHei-55"/>
      </defs>
      <g style="fill:#262626;" transform="translate(390.842273 324.6465)scale(0.11 -0.11)">
       <use transform="translate(0 0.15625)" xlink:href="#SimHei-49"/>
       <use transform="translate(50 0.15625)" xlink:href="#SimHei-48"/>
       <use transform="translate(100.799805 32.148438)scale(0.7)" xlink:href="#SimHei-55"/>
      </g>
     </g>
    </g>
    <g id="xtick_9"/>
    <g id="xtick_10"/>
    <g id="xtick_11"/>
    <g id="xtick_12"/>
    <g id="xtick_13"/>
    <g id="xtick_14"/>
    <g id="xtick_15"/>
    <g id="xtick_16"/>
    <g id="xtick_17"/>
    <g id="xtick_18"/>
    <g id="xtick_19"/>
    <g id="xtick_20"/>
    <g id="xtick_21"/>
    <g id="xtick_22"/>
    <g id="xtick_23"/>
    <g id="xtick_24"/>
    <g id="xtick_25"/>
    <g id="xtick_26"/>
    <g id="xtick_27"/>
    <g id="xtick_28"/>
    <g id="xtick_29"/>
    <g id="xtick_30"/>
    <g id="xtick_31"/>
    <g id="xtick_32"/>
    <g id="xtick_33"/>
    <g id="xtick_34"/>
    <g id="xtick_35"/>
    <g id="xtick_36"/>
    <g id="xtick_37"/>
    <g id="xtick_38"/>
    <g id="xtick_39"/>
    <g id="xtick_40"/>
    <g id="xtick_41"/>
    <g id="xtick_42"/>
    <g id="xtick_43"/>
    <g id="xtick_44"/>
    <g id="xtick_45"/>
    <g id="xtick_46"/>
    <g id="xtick_47"/>
    <g id="xtick_48"/>
    <g id="xtick_49"/>
    <g id="xtick_50"/>
    <g id="xtick_51"/>
    <g id="xtick_52"/>
    <g id="xtick_53"/>
    <g id="xtick_54"/>
    <g id="xtick_55"/>
    <g id="xtick_56"/>
    <g id="xtick_57"/>
    <g id="xtick_58"/>
    <g id="xtick_59"/>
    <g id="xtick_60"/>
    <g id="xtick_61"/>
    <g id="xtick_62"/>
    <g id="xtick_63"/>
    <g id="xtick_64"/>
    <g id="xtick_65"/>
    <g id="xtick_66"/>
    <g id="xtick_67"/>
    <g id="xtick_68"/>
    <g id="xtick_69"/>
    <g id="xtick_70"/>
    <g id="text_9">
     <!-- 矩阵大小n:(1xn)@(nx1) -->
     <defs>
      <path d="M 81.640625 74.609375 
Q 87.5 74.609375 94.140625 75 
L 94.140625 67.578125 
Q 89.0625 67.96875 82.03125 67.96875 
L 57.421875 67.96875 
L 57.421875 50.78125 
L 89.0625 50.78125 
Q 88.28125 44.921875 88.28125 39.0625 
L 88.28125 32.03125 
Q 88.28125 25 88.671875 19.53125 
L 57.421875 19.53125 
L 57.421875 0.78125 
L 82.421875 0.78125 
Q 87.890625 0.78125 96.09375 1.5625 
L 96.09375 -5.859375 
Q 87.890625 -5.46875 82.8125 -5.46875 
L 49.21875 -5.46875 
Q 50 5.46875 50 10.9375 
L 50 58.203125 
Q 50 66.015625 49.21875 74.609375 
L 81.640625 74.609375 
z
M 26.5625 78.515625 
Q 25.390625 77.34375 23.625 74.40625 
Q 21.875 71.484375 19.921875 65.625 
L 32.03125 65.625 
Q 39.453125 65.625 44.53125 66.015625 
L 44.53125 57.8125 
Q 38.28125 58.59375 31.25 58.59375 
L 31.25 38.671875 
L 35.15625 38.671875 
Q 39.84375 38.671875 45.703125 39.0625 
L 45.703125 30.859375 
Q 41.015625 32.03125 35.15625 32.03125 
L 31.25 32.03125 
Q 30.46875 26.953125 30.46875 24.21875 
Q 33.59375 21.09375 38.078125 16.40625 
Q 42.578125 11.71875 48.4375 3.90625 
Q 44.53125 1.5625 41.796875 -1.953125 
Q 38.28125 3.125 34.765625 7.8125 
Q 31.25 12.5 28.125 15.234375 
Q 26.171875 8.59375 21.671875 2.734375 
Q 17.1875 -3.125 10.546875 -10.15625 
Q 7.8125 -7.03125 3.125 -3.515625 
Q 12.5 3.515625 17.1875 11.328125 
Q 21.875 19.140625 23.4375 32.03125 
L 15.625 32.03125 
Q 8.984375 32.03125 3.90625 30.859375 
L 3.90625 38.671875 
Q 10.546875 38.28125 15.625 38.28125 
L 23.828125 38.28125 
L 23.828125 58.59375 
L 17.578125 58.59375 
Q 15.234375 53.125 11.71875 46.875 
Q 8.59375 48.4375 3.90625 49.609375 
Q 9.765625 58.203125 12.6875 66.984375 
Q 15.625 75.78125 16.796875 82.03125 
Q 21.09375 80.46875 26.5625 78.515625 
z
M 80.859375 25.78125 
L 80.859375 44.140625 
L 57.421875 44.140625 
L 57.421875 25.78125 
z
" id="SimHei-30697"/>
      <path d="M 37.890625 38.28125 
Q 42.1875 41.015625 45.3125 46.671875 
Q 48.4375 52.34375 51.171875 59.765625 
Q 45.3125 59.765625 38.28125 59.375 
L 38.28125 66.796875 
Q 45.703125 66.40625 53.90625 66.40625 
Q 56.25 73.046875 57.421875 81.25 
Q 62.5 80.078125 67.578125 78.515625 
Q 62.890625 69.921875 61.71875 66.40625 
L 79.6875 66.40625 
Q 86.71875 66.40625 92.578125 66.796875 
L 92.578125 59.375 
Q 87.109375 59.765625 80.078125 59.765625 
L 58.984375 59.765625 
Q 56.25 53.515625 48.4375 38.28125 
L 63.28125 38.28125 
L 63.28125 42.96875 
Q 63.28125 46.875 62.890625 51.5625 
L 71.484375 51.5625 
Q 71.09375 47.265625 71.09375 44.140625 
L 71.09375 38.28125 
L 77.34375 38.28125 
Q 83.984375 38.28125 90.234375 38.671875 
L 90.234375 31.640625 
Q 84.375 32.03125 77.734375 32.03125 
L 71.09375 32.03125 
L 71.09375 16.796875 
L 81.640625 16.796875 
Q 88.671875 16.796875 94.53125 17.1875 
L 94.53125 9.765625 
Q 88.671875 10.15625 82.03125 10.15625 
L 71.09375 10.15625 
L 71.09375 1.953125 
Q 71.09375 -3.515625 71.484375 -9.375 
L 62.890625 -9.375 
Q 63.28125 -3.515625 63.28125 0.78125 
L 63.28125 10.15625 
L 50 10.15625 
Q 43.359375 10.15625 36.71875 9.765625 
L 36.71875 17.1875 
Q 43.359375 16.796875 50 16.796875 
L 63.28125 16.796875 
L 63.28125 31.640625 
Q 55.859375 31.640625 50.78125 31.25 
Q 45.703125 30.859375 41.40625 29.6875 
Q 39.0625 36.328125 37.890625 38.28125 
z
M 36.328125 75.390625 
Q 29.296875 57.421875 26.171875 46.09375 
Q 32.8125 37.109375 34.765625 32.03125 
Q 36.71875 26.953125 36.328125 22.65625 
Q 35.9375 18.359375 31.828125 15.234375 
Q 27.734375 12.109375 22.265625 10.546875 
Q 20.703125 15.234375 18.75 19.53125 
Q 25.78125 19.53125 27.34375 21.875 
Q 28.90625 24.21875 28.125 28.3125 
Q 27.34375 32.421875 25.390625 36.328125 
Q 23.4375 40.234375 19.140625 44.921875 
Q 24.609375 62.109375 25.78125 69.140625 
L 15.625 69.140625 
L 15.625 -8.203125 
L 7.8125 -8.203125 
Q 8.203125 2.34375 8.203125 12.890625 
L 8.203125 58.59375 
Q 8.203125 67.578125 7.8125 75.390625 
L 36.328125 75.390625 
z
" id="SimHei-38453"/>
      <path d="M 45.3125 53.125 
Q 45.703125 66.796875 45.5 71.484375 
Q 45.3125 76.171875 44.921875 80.46875 
Q 49.609375 79.6875 55.46875 79.296875 
Q 54.296875 75.390625 53.703125 67.96875 
Q 53.125 60.546875 53.125 53.125 
L 73.046875 53.125 
Q 83.59375 53.125 92.578125 53.90625 
L 92.578125 45.3125 
Q 84.765625 45.703125 76.5625 45.703125 
L 53.515625 45.703125 
Q 55.078125 39.0625 58.984375 32.21875 
Q 62.890625 25.390625 66.984375 20.109375 
Q 71.09375 14.84375 78.3125 8.984375 
Q 85.546875 3.125 94.140625 -0.78125 
Q 91.015625 -3.125 87.890625 -8.59375 
Q 80.859375 -4.6875 74.015625 1.171875 
Q 67.1875 7.03125 60.34375 16.59375 
Q 53.515625 26.171875 50 34.375 
Q 46.875 25.78125 43.359375 20.109375 
Q 39.84375 14.453125 35.734375 9.765625 
Q 31.640625 5.078125 25.1875 0.390625 
Q 18.75 -4.296875 10.546875 -8.984375 
Q 7.421875 -4.296875 3.515625 -0.78125 
Q 11.71875 1.953125 19.71875 7.03125 
Q 27.734375 12.109375 32.8125 18.546875 
Q 37.890625 25 41.015625 32.03125 
Q 44.140625 39.0625 44.921875 45.703125 
L 23.4375 45.703125 
Q 14.0625 45.703125 8.59375 45.3125 
L 8.59375 53.90625 
Q 14.0625 53.515625 23.4375 53.125 
z
" id="SimHei-22823"/>
      <path d="M 54.6875 80.46875 
Q 54.296875 75 54.296875 65.625 
L 54.296875 2.734375 
Q 54.296875 -4.6875 50.390625 -6.640625 
Q 46.484375 -8.59375 37.109375 -9.375 
Q 36.328125 -4.6875 33.59375 -0.390625 
Q 42.1875 -0.390625 44.328125 0 
Q 46.484375 0.390625 46.484375 4.6875 
L 46.484375 65.625 
Q 46.484375 72.65625 46.09375 80.46875 
L 54.6875 80.46875 
z
M 32.421875 53.125 
Q 28.90625 43.359375 24.21875 30.65625 
Q 19.53125 17.96875 16.015625 11.71875 
Q 12.109375 14.84375 7.8125 15.625 
Q 14.453125 27.34375 18.359375 38.859375 
Q 22.265625 50.390625 23.4375 55.859375 
Q 28.125 53.515625 32.421875 53.125 
z
M 73.046875 56.25 
Q 88.671875 28.125 91.796875 17.96875 
Q 87.890625 17.1875 83.984375 14.453125 
Q 78.125 31.25 66.015625 51.953125 
Q 69.140625 53.515625 73.046875 56.25 
z
" id="SimHei-23567"/>
      <path d="M 43.75 1.953125 
L 35.9375 1.953125 
L 35.9375 30.078125 
Q 35.9375 34.765625 33.59375 37.5 
Q 31.25 40.234375 27.34375 40.234375 
Q 22.265625 40.234375 17.765625 34.953125 
Q 13.28125 29.6875 13.28125 21.875 
L 13.28125 1.953125 
L 5.46875 1.953125 
L 5.46875 45.703125 
L 13.28125 45.703125 
L 13.28125 37.5 
Q 16.40625 41.796875 20.109375 44.140625 
Q 23.828125 46.484375 29.6875 46.484375 
Q 36.71875 46.484375 40.234375 42.578125 
Q 43.75 38.671875 43.75 32.8125 
z
" id="SimHei-110"/>
      <path d="M 28.515625 37.890625 
L 19.53125 37.890625 
L 19.53125 46.484375 
L 28.515625 46.484375 
z
M 28.515625 1.953125 
L 19.53125 1.953125 
L 19.53125 10.546875 
L 28.515625 10.546875 
z
" id="SimHei-58"/>
      <path d="M 46.484375 -3.125 
L 42.1875 -7.421875 
Q 32.421875 1.953125 27.53125 12.109375 
Q 22.65625 22.265625 22.65625 35.15625 
Q 22.65625 48.046875 27.53125 58.203125 
Q 32.421875 68.359375 42.1875 78.125 
L 46.484375 73.828125 
Q 37.5 65.234375 33 56.046875 
Q 28.515625 46.875 28.515625 35.15625 
Q 28.515625 23.4375 33 14.25 
Q 37.5 5.078125 46.484375 -3.125 
z
" id="SimHei-40"/>
      <path d="M 44.921875 1.953125 
L 35.546875 1.953125 
L 24.21875 18.75 
L 12.890625 1.953125 
L 3.515625 1.953125 
L 19.53125 24.21875 
L 4.6875 45.703125 
L 14.0625 45.703125 
L 24.21875 29.296875 
L 34.375 45.703125 
L 43.75 45.703125 
L 28.90625 24.21875 
z
" id="SimHei-120"/>
      <path d="M 26.171875 35.15625 
Q 26.171875 22.265625 21.28125 12.109375 
Q 16.40625 1.953125 6.640625 -7.421875 
L 2.34375 -3.125 
Q 11.328125 5.078125 15.8125 14.25 
Q 20.3125 23.4375 20.3125 35.15625 
Q 20.3125 46.875 15.8125 56.046875 
Q 11.328125 65.234375 2.34375 73.828125 
L 6.640625 78.125 
Q 16.40625 68.359375 21.28125 58.203125 
Q 26.171875 48.046875 26.171875 35.15625 
z
" id="SimHei-41"/>
      <path d="M 46.875 41.40625 
Q 46.875 26.953125 42.765625 21.484375 
Q 38.671875 16.015625 33.984375 16.015625 
Q 32.03125 16.015625 30.46875 17.1875 
Q 28.90625 18.359375 28.125 20.703125 
Q 26.171875 18.359375 24.21875 17.1875 
Q 22.265625 16.015625 20.3125 16.015625 
Q 16.40625 16.015625 13.671875 19.328125 
Q 10.9375 22.65625 10.9375 28.90625 
Q 10.9375 39.453125 16.40625 47.65625 
Q 21.875 55.859375 26.953125 55.859375 
Q 28.90625 55.859375 29.6875 55.46875 
Q 30.46875 55.078125 31.640625 52.734375 
L 33.59375 55.859375 
L 37.890625 55.859375 
L 32.421875 26.171875 
Q 32.03125 23.828125 32.8125 22.65625 
Q 33.59375 21.484375 35.15625 21.484375 
Q 39.453125 21.484375 41.203125 26.75 
Q 42.96875 32.03125 42.96875 41.40625 
Q 42.96875 53.125 38.46875 59.765625 
Q 33.984375 66.40625 26.5625 66.40625 
Q 18.359375 66.40625 12.109375 58.390625 
Q 5.859375 50.390625 5.859375 33.984375 
Q 5.859375 17.578125 11.71875 10.9375 
Q 17.578125 4.296875 25.78125 4.296875 
Q 28.90625 4.296875 32.421875 6.046875 
Q 35.9375 7.8125 37.890625 11.328125 
L 39.84375 8.59375 
Q 37.5 5.46875 33.78125 3.3125 
Q 30.078125 1.171875 25.78125 1.171875 
Q 16.015625 1.171875 8.984375 8.78125 
Q 1.953125 16.40625 1.953125 33.984375 
Q 1.953125 51.5625 9.375 60.546875 
Q 16.796875 69.53125 26.5625 69.53125 
Q 35.9375 69.53125 41.40625 61.71875 
Q 46.875 53.90625 46.875 41.40625 
z
M 30.46875 46.484375 
Q 30.859375 48.828125 30.078125 50.1875 
Q 29.296875 51.5625 27.34375 51.5625 
Q 24.21875 51.5625 20.703125 44.328125 
Q 17.1875 37.109375 17.1875 29.296875 
Q 17.1875 25 18.546875 23.046875 
Q 19.921875 21.09375 21.875 21.09375 
Q 24.21875 21.09375 25.390625 23.046875 
Q 26.5625 25 26.953125 27.34375 
z
" id="SimHei-64"/>
     </defs>
     <g style="fill:#262626;" transform="translate(173.16 339.7765)scale(0.12 -0.12)">
      <use xlink:href="#SimHei-30697"/>
      <use x="100" xlink:href="#SimHei-38453"/>
      <use x="200" xlink:href="#SimHei-22823"/>
      <use x="300" xlink:href="#SimHei-23567"/>
      <use x="400" xlink:href="#SimHei-110"/>
      <use x="450" xlink:href="#SimHei-58"/>
      <use x="500" xlink:href="#SimHei-40"/>
      <use x="550" xlink:href="#SimHei-49"/>
      <use x="600" xlink:href="#SimHei-120"/>
      <use x="650" xlink:href="#SimHei-110"/>
      <use x="700" xlink:href="#SimHei-41"/>
      <use x="750" xlink:href="#SimHei-64"/>
      <use x="800" xlink:href="#SimHei-40"/>
      <use x="850" xlink:href="#SimHei-110"/>
      <use x="900" xlink:href="#SimHei-120"/>
      <use x="950" xlink:href="#SimHei-49"/>
      <use x="1000" xlink:href="#SimHei-41"/>
     </g>
    </g>
   </g>
   <g id="matplotlib.axis_2">
    <g id="ytick_1">
     <g id="line2d_9">
      <path clip-path="url(#p290e100f2b)" d="M 57.6 258.973224 
L 414.72 258.973224 
" style="fill:none;stroke:#ffffff;stroke-linecap:round;"/>
     </g>
     <g id="text_10">
      <!-- $\mathdefault{10^{-1}}$ -->
      <defs>
       <path d="M 52.203125 4 
L 47.40625 -1 
L 37.59375 8.796875 
Q 31.703125 4.703125 25.09375 4.703125 
Q 18.296875 4.703125 12.40625 8.796875 
L 2.796875 -1 
L -2.203125 4 
L 7.59375 13.59375 
Q 3.5 19.5 3.5 26.203125 
Q 3.5 33.09375 7.59375 38.796875 
L -2.203125 48.59375 
L 2.796875 53.40625 
L 12.40625 43.796875 
Q 18.5 47.703125 25.09375 47.703125 
Q 32 47.703125 37.59375 43.796875 
L 47.40625 53.40625 
L 52.203125 48.59375 
L 42.59375 38.796875 
Q 46.5 33 46.5 26.296875 
Q 46.5 19.703125 42.59375 13.59375 
z
M 39.703125 26.40625 
Q 39.703125 32.59375 35.390625 36.9375 
Q 31.09375 41.296875 24.90625 41.296875 
Q 18.90625 41.296875 14.59375 36.890625 
Q 10.296875 32.5 10.296875 26.296875 
Q 10.296875 20 14.640625 15.546875 
Q 19 11.09375 25.09375 11.09375 
Q 31.296875 11.09375 35.5 15.546875 
Q 39.703125 20 39.703125 26.40625 
z
" id="STIXGeneral-Regular-164"/>
      </defs>
      <g style="fill:#262626;" transform="translate(28.96 262.795724)scale(0.11 -0.11)">
       <use transform="translate(0 0.335938)" xlink:href="#SimHei-49"/>
       <use transform="translate(50 0.335938)" xlink:href="#SimHei-48"/>
       <use transform="translate(100.799805 32.328125)scale(0.7)" xlink:href="#STIXGeneral-Regular-164"/>
       <use transform="translate(135.799794 32.328125)scale(0.7)" xlink:href="#SimHei-49"/>
      </g>
     </g>
    </g>
    <g id="ytick_2">
     <g id="line2d_10">
      <path clip-path="url(#p290e100f2b)" d="M 57.6 186.472816 
L 414.72 186.472816 
" style="fill:none;stroke:#ffffff;stroke-linecap:round;"/>
     </g>
     <g id="text_11">
      <!-- $\mathdefault{10^{0}}$ -->
      <g style="fill:#262626;" transform="translate(32.81 190.295316)scale(0.11 -0.11)">
       <use transform="translate(0 0.0625)" xlink:href="#SimHei-49"/>
       <use transform="translate(50 0.0625)" xlink:href="#SimHei-48"/>
       <use transform="translate(100.799805 32.054688)scale(0.7)" xlink:href="#SimHei-48"/>
      </g>
     </g>
    </g>
    <g id="ytick_3">
     <g id="line2d_11">
      <path clip-path="url(#p290e100f2b)" d="M 57.6 113.972408 
L 414.72 113.972408 
" style="fill:none;stroke:#ffffff;stroke-linecap:round;"/>
     </g>
     <g id="text_12">
      <!-- $\mathdefault{10^{1}}$ -->
      <g style="fill:#262626;" transform="translate(32.81 117.794908)scale(0.11 -0.11)">
       <use transform="translate(0 0.335938)" xlink:href="#SimHei-49"/>
       <use transform="translate(50 0.335938)" xlink:href="#SimHei-48"/>
       <use transform="translate(100.799805 32.328125)scale(0.7)" xlink:href="#SimHei-49"/>
      </g>
     </g>
    </g>
    <g id="ytick_4">
     <g id="line2d_12">
      <path clip-path="url(#p290e100f2b)" d="M 57.6 41.472 
L 414.72 41.472 
" style="fill:none;stroke:#ffffff;stroke-linecap:round;"/>
     </g>
     <g id="text_13">
      <!-- $\mathdefault{10^{2}}$ -->
      <g style="fill:#262626;" transform="translate(32.81 45.3495)scale(0.11 -0.11)">
       <use transform="translate(0 0.789062)" xlink:href="#SimHei-49"/>
       <use transform="translate(50 0.789062)" xlink:href="#SimHei-48"/>
       <use transform="translate(100.799805 32.78125)scale(0.7)" xlink:href="#SimHei-50"/>
      </g>
     </g>
    </g>
    <g id="ytick_5"/>
    <g id="ytick_6"/>
    <g id="ytick_7"/>
    <g id="ytick_8"/>
    <g id="ytick_9"/>
    <g id="ytick_10"/>
    <g id="ytick_11"/>
    <g id="ytick_12"/>
    <g id="ytick_13"/>
    <g id="ytick_14"/>
    <g id="ytick_15"/>
    <g id="ytick_16"/>
    <g id="ytick_17"/>
    <g id="ytick_18"/>
    <g id="ytick_19"/>
    <g id="ytick_20"/>
    <g id="ytick_21"/>
    <g id="ytick_22"/>
    <g id="ytick_23"/>
    <g id="ytick_24"/>
    <g id="ytick_25"/>
    <g id="ytick_26"/>
    <g id="ytick_27"/>
    <g id="ytick_28"/>
    <g id="ytick_29"/>
    <g id="ytick_30"/>
    <g id="ytick_31"/>
    <g id="ytick_32"/>
    <g id="ytick_33"/>
    <g id="ytick_34"/>
    <g id="ytick_35"/>
    <g id="text_14">
     <!-- 运算时间(ms) -->
     <defs>
      <path d="M 78.90625 16.796875 
Q 58.59375 14.453125 51.171875 13.46875 
Q 43.75 12.5 41.015625 10.9375 
L 37.109375 19.140625 
Q 41.015625 20.703125 45.3125 27.734375 
Q 49.609375 34.765625 51.953125 45.703125 
Q 38.671875 45.703125 31.640625 45.3125 
L 31.640625 52.734375 
Q 39.0625 52.34375 61.71875 52.34375 
Q 84.375 52.34375 91.015625 52.734375 
L 91.015625 45.3125 
Q 84.375 45.703125 60.546875 45.703125 
Q 59.375 41.40625 56.046875 34.375 
Q 52.734375 27.34375 48.046875 19.921875 
Q 62.5 21.09375 75.78125 22.265625 
Q 73.046875 27.34375 67.96875 33.59375 
Q 71.09375 35.15625 73.828125 37.890625 
Q 81.25 28.515625 89.84375 14.453125 
Q 86.328125 12.5 82.8125 10.15625 
Q 80.859375 13.671875 78.90625 16.796875 
z
M 5.078125 0 
Q 17.1875 7.8125 21.09375 9.375 
L 21.09375 40.625 
Q 14.0625 40.625 7.421875 40.234375 
L 7.421875 47.65625 
Q 14.84375 47.265625 21.875 47.265625 
L 28.515625 47.265625 
Q 28.125 39.84375 28.125 35.546875 
L 28.125 10.9375 
Q 36.328125 0.78125 59.171875 0.578125 
Q 82.03125 0.390625 94.53125 2.34375 
Q 91.796875 -2.734375 91.015625 -7.03125 
L 65.625 -7.03125 
Q 55.46875 -7.03125 48.625 -6.046875 
Q 41.796875 -5.078125 37.109375 -3.3125 
Q 32.421875 -1.5625 28.515625 1.75 
Q 24.609375 5.078125 19.328125 0.390625 
Q 14.0625 -4.296875 11.328125 -7.421875 
Q 8.59375 -4.296875 5.078125 0 
z
M 84.375 66.796875 
Q 76.953125 67.1875 62.109375 67.1875 
Q 47.65625 67.1875 39.453125 66.796875 
L 39.453125 74.21875 
Q 46.484375 73.828125 61.71875 73.828125 
Q 76.953125 73.828125 84.375 74.21875 
z
M 23.046875 58.984375 
Q 18.359375 66.796875 11.328125 73.828125 
L 16.796875 78.515625 
Q 26.953125 67.578125 29.296875 63.671875 
z
" id="SimHei-36816"/>
      <path d="M 80.859375 57.03125 
Q 80.46875 50 80.46875 39.0625 
Q 80.46875 28.125 80.859375 20.703125 
L 71.484375 20.703125 
L 71.484375 13.671875 
L 82.03125 13.671875 
Q 88.28125 13.671875 96.09375 14.0625 
L 96.09375 7.421875 
Q 88.28125 7.8125 82.03125 7.8125 
L 71.484375 7.8125 
Q 71.484375 -1.171875 71.875 -9.765625 
L 63.28125 -9.765625 
Q 63.671875 -1.171875 63.671875 7.8125 
L 41.40625 7.8125 
Q 38.671875 1.5625 33.203125 -2.734375 
Q 27.734375 -7.03125 16.796875 -10.546875 
Q 14.453125 -6.640625 10.9375 -3.90625 
Q 19.53125 -2.34375 25 0.578125 
Q 30.46875 3.515625 33.203125 7.8125 
L 19.140625 7.8125 
Q 12.5 7.8125 4.6875 7.421875 
L 4.6875 14.0625 
Q 12.890625 13.671875 19.140625 13.671875 
L 34.375 13.671875 
Q 35.15625 16.796875 35.15625 20.703125 
L 19.53125 20.703125 
Q 19.921875 27.734375 19.921875 38.671875 
Q 19.921875 50 19.53125 57.03125 
L 80.859375 57.03125 
z
M 28.515625 79.6875 
Q 25.390625 76.5625 23.046875 73.828125 
L 37.890625 73.828125 
Q 42.96875 73.828125 49.609375 74.21875 
L 49.609375 67.578125 
Q 42.96875 67.96875 34.375 67.96875 
Q 35.15625 65.234375 36.71875 60.546875 
Q 32.421875 60.15625 28.515625 58.59375 
Q 27.34375 63.671875 26.171875 67.96875 
L 18.75 67.96875 
Q 16.796875 64.453125 12.109375 58.984375 
Q 8.203125 61.328125 3.90625 62.5 
Q 7.8125 66.015625 11.90625 70.890625 
Q 16.015625 75.78125 19.921875 82.8125 
Q 23.4375 80.859375 28.515625 79.6875 
z
M 70.703125 79.6875 
Q 67.578125 77.34375 65.234375 73.828125 
L 81.640625 73.828125 
Q 85.9375 73.828125 92.96875 74.21875 
L 92.96875 67.578125 
Q 86.71875 67.96875 77.734375 67.96875 
L 80.859375 61.71875 
Q 76.953125 61.328125 72.65625 59.765625 
Q 71.484375 64.0625 70.3125 67.96875 
L 60.9375 67.96875 
Q 57.8125 62.890625 55.078125 58.984375 
Q 50.78125 61.71875 47.265625 62.5 
Q 51.953125 67.1875 55.46875 72.0625 
Q 58.984375 76.953125 60.9375 82.421875 
Q 65.234375 80.859375 70.703125 79.6875 
z
M 72.65625 26.171875 
L 72.65625 31.25 
L 27.734375 31.25 
L 27.734375 26.171875 
z
M 72.65625 36.71875 
L 72.65625 41.40625 
L 27.734375 41.40625 
L 27.734375 36.71875 
z
M 72.65625 46.875 
L 72.65625 51.5625 
L 27.734375 51.5625 
L 27.734375 46.875 
z
M 63.671875 13.671875 
L 63.671875 20.703125 
L 42.578125 20.703125 
Q 42.578125 16.796875 42.1875 13.671875 
z
" id="SimHei-31639"/>
      <path d="M 39.453125 71.484375 
Q 39.0625 57.421875 39.0625 37.5 
Q 39.0625 17.578125 39.453125 6.25 
L 31.25 6.25 
L 31.25 13.671875 
L 15.625 13.671875 
L 15.625 0.78125 
L 7.421875 0.78125 
Q 7.8125 18.75 7.8125 36.71875 
Q 7.8125 55.078125 7.421875 71.484375 
L 39.453125 71.484375 
z
M 76.171875 59.765625 
Q 76.171875 71.484375 75.78125 81.640625 
L 84.375 81.640625 
Q 83.984375 71.484375 83.984375 59.765625 
Q 89.84375 59.765625 96.484375 60.15625 
L 96.484375 52.734375 
Q 89.84375 53.125 83.984375 53.125 
L 83.984375 0.78125 
Q 83.984375 -5.078125 79.296875 -6.640625 
Q 74.609375 -8.203125 67.1875 -8.984375 
Q 67.1875 -4.296875 62.890625 0 
Q 70.3125 -0.78125 73.234375 -0.390625 
Q 76.171875 0 76.171875 4.6875 
L 76.171875 53.125 
Q 56.640625 53.125 43.359375 52.734375 
L 43.359375 60.15625 
Q 55.859375 59.765625 76.171875 59.765625 
z
M 31.25 20.3125 
L 31.25 39.84375 
L 15.625 39.84375 
L 15.625 20.3125 
z
M 31.25 46.484375 
L 31.25 64.84375 
L 15.625 64.84375 
L 15.625 46.484375 
z
M 55.46875 42.578125 
Q 60.546875 34.375 65.234375 25 
Q 61.328125 23.828125 57.03125 21.484375 
Q 53.90625 30.859375 48.046875 39.0625 
Q 51.5625 40.625 55.46875 42.578125 
z
" id="SimHei-26102"/>
      <path d="M 69.53125 55.46875 
Q 69.140625 48.046875 69.140625 42.578125 
L 69.140625 21.875 
Q 69.140625 16.796875 69.53125 9.765625 
L 30.078125 9.765625 
Q 30.46875 16.796875 30.46875 22.265625 
L 30.46875 42.578125 
Q 30.46875 48.046875 30.078125 55.46875 
L 69.53125 55.46875 
z
M 90.625 76.171875 
Q 90.234375 68.75 90.234375 61.328125 
L 90.234375 3.90625 
Q 90.625 -5.078125 85.34375 -7.03125 
Q 80.078125 -8.984375 73.828125 -9.765625 
Q 73.4375 -5.078125 70.703125 -0.390625 
Q 78.125 -0.78125 80.265625 0.390625 
Q 82.421875 1.5625 82.421875 5.46875 
L 82.421875 69.53125 
L 58.984375 69.53125 
Q 49.609375 69.53125 41.40625 69.140625 
L 41.40625 76.5625 
Q 49.609375 76.171875 58.984375 76.171875 
z
M 8.59375 -8.203125 
Q 9.375 -0.390625 9.375 8.203125 
L 9.375 49.21875 
Q 9.375 57.421875 8.59375 62.890625 
L 17.578125 62.890625 
Q 17.1875 57.03125 17.1875 51.5625 
L 17.1875 7.8125 
Q 17.1875 0 17.578125 -8.203125 
z
M 61.71875 16.015625 
L 61.71875 30.46875 
L 37.890625 30.46875 
L 37.890625 16.015625 
z
M 61.71875 36.71875 
L 61.71875 49.21875 
L 37.890625 49.21875 
L 37.890625 36.71875 
z
M 23.828125 82.8125 
Q 27.34375 78.125 34.765625 67.96875 
Q 30.46875 66.015625 26.5625 63.671875 
Q 22.65625 71.484375 16.796875 78.515625 
Q 21.09375 81.640625 23.828125 82.8125 
z
" id="SimHei-38388"/>
      <path d="M 47.65625 1.953125 
L 39.84375 1.953125 
L 39.84375 33.59375 
Q 39.84375 35.9375 39.0625 37.5 
Q 38.28125 39.0625 35.9375 39.0625 
Q 33.203125 39.0625 30.859375 36.125 
Q 28.515625 33.203125 28.515625 28.515625 
L 28.515625 1.953125 
L 20.703125 1.953125 
L 20.703125 33.59375 
Q 20.703125 35.9375 19.921875 37.5 
Q 19.140625 39.0625 16.796875 39.0625 
Q 14.0625 39.0625 11.71875 36.125 
Q 9.375 33.203125 9.375 28.515625 
L 9.375 1.953125 
L 1.5625 1.953125 
L 1.5625 45.703125 
L 9.375 45.703125 
L 9.375 39.84375 
Q 11.328125 42.96875 14.0625 44.71875 
Q 16.796875 46.484375 19.921875 46.484375 
Q 23.046875 46.484375 25.1875 44.71875 
Q 27.34375 42.96875 28.125 39.84375 
Q 30.078125 42.96875 32.609375 44.71875 
Q 35.15625 46.484375 38.28125 46.484375 
Q 42.96875 46.484375 45.3125 43.9375 
Q 47.65625 41.40625 47.65625 36.71875 
z
" id="SimHei-109"/>
      <path d="M 42.96875 14.0625 
Q 42.96875 7.8125 38.078125 4.484375 
Q 33.203125 1.171875 25.78125 1.171875 
Q 16.40625 1.171875 11.328125 4.875 
Q 6.25 8.59375 6.25 15.625 
L 14.0625 15.625 
Q 14.0625 10.9375 17.375 9.375 
Q 20.703125 7.8125 25.390625 7.8125 
Q 30.078125 7.8125 32.421875 9.5625 
Q 34.765625 11.328125 34.765625 14.0625 
Q 34.765625 16.015625 32.8125 17.96875 
Q 30.859375 19.921875 23.046875 21.09375 
Q 14.0625 22.265625 10.734375 25.578125 
Q 7.421875 28.90625 7.421875 34.375 
Q 7.421875 39.0625 11.90625 42.765625 
Q 16.40625 46.484375 25 46.484375 
Q 32.8125 46.484375 37.296875 42.96875 
Q 41.796875 39.453125 41.796875 33.59375 
L 33.984375 33.59375 
Q 33.984375 37.109375 31.4375 38.46875 
Q 28.90625 39.84375 25 39.84375 
Q 19.921875 39.84375 17.765625 38.078125 
Q 15.625 36.328125 15.625 33.984375 
Q 15.625 31.25 17.578125 29.6875 
Q 19.53125 28.125 25.78125 27.34375 
Q 35.9375 25.78125 39.453125 22.453125 
Q 42.96875 19.140625 42.96875 14.0625 
z
" id="SimHei-115"/>
     </defs>
     <g style="fill:#262626;" transform="translate(23.46 210.528)rotate(-90)scale(0.12 -0.12)">
      <use xlink:href="#SimHei-36816"/>
      <use x="100" xlink:href="#SimHei-31639"/>
      <use x="200" xlink:href="#SimHei-26102"/>
      <use x="300" xlink:href="#SimHei-38388"/>
      <use x="400" xlink:href="#SimHei-40"/>
      <use x="450" xlink:href="#SimHei-109"/>
      <use x="500" xlink:href="#SimHei-115"/>
      <use x="550" xlink:href="#SimHei-41"/>
     </g>
    </g>
   </g>
   <g id="line2d_13">
    <path clip-path="url(#p290e100f2b)" d="M 73.832727 292.272314 
L 120.211948 296.053505 
L 166.591169 297.852023 
L 212.97039 282.934403 
L 259.34961 273.511122 
L 305.728831 227.312064 
L 352.108052 155.199117 
L 398.487273 103.212478 
" style="fill:none;stroke:#dd8452;stroke-linecap:round;stroke-width:1.5;"/>
   </g>
   <g id="line2d_14">
    <path clip-path="url(#p290e100f2b)" d="M 73.832727 292.272314 
L 120.211948 296.053505 
L 166.591169 297.852023 
L 212.97039 282.934403 
L 259.34961 273.511122 
L 305.728831 227.312064 
L 352.108052 155.199117 
L 398.487273 103.212478 
" style="fill:none;stroke:#dd8452;stroke-linecap:round;stroke-width:1.5;"/>
    <defs>
     <path d="M -3 3 
L 3 3 
L 3 -3 
L -3 -3 
z
" id="m1907b758cc" style="stroke:#dd8452;stroke-linejoin:miter;"/>
    </defs>
    <g clip-path="url(#p290e100f2b)">
     <use style="fill:#dd8452;stroke:#dd8452;stroke-linejoin:miter;" x="73.832727" xlink:href="#m1907b758cc" y="292.272314"/>
     <use style="fill:#dd8452;stroke:#dd8452;stroke-linejoin:miter;" x="120.211948" xlink:href="#m1907b758cc" y="296.053505"/>
     <use style="fill:#dd8452;stroke:#dd8452;stroke-linejoin:miter;" x="166.591169" xlink:href="#m1907b758cc" y="297.852023"/>
     <use style="fill:#dd8452;stroke:#dd8452;stroke-linejoin:miter;" x="212.97039" xlink:href="#m1907b758cc" y="282.934403"/>
     <use style="fill:#dd8452;stroke:#dd8452;stroke-linejoin:miter;" x="259.34961" xlink:href="#m1907b758cc" y="273.511122"/>
     <use style="fill:#dd8452;stroke:#dd8452;stroke-linejoin:miter;" x="305.728831" xlink:href="#m1907b758cc" y="227.312064"/>
     <use style="fill:#dd8452;stroke:#dd8452;stroke-linejoin:miter;" x="352.108052" xlink:href="#m1907b758cc" y="155.199117"/>
     <use style="fill:#dd8452;stroke:#dd8452;stroke-linejoin:miter;" x="398.487273" xlink:href="#m1907b758cc" y="103.212478"/>
    </g>
   </g>
   <g id="line2d_15">
    <path clip-path="url(#p290e100f2b)" d="M 73.832727 273.481158 
L 120.211948 280.716263 
L 166.591169 282.954628 
L 212.97039 268.577613 
L 259.34961 251.499519 
L 305.728831 248.250947 
L 352.108052 241.313308 
L 398.487273 257.741327 
" style="fill:none;stroke:#4c72b0;stroke-linecap:round;stroke-width:1.5;"/>
   </g>
   <g id="line2d_16">
    <path clip-path="url(#p290e100f2b)" d="M 73.832727 273.481158 
L 120.211948 280.716263 
L 166.591169 282.954628 
L 212.97039 268.577613 
L 259.34961 251.499519 
L 305.728831 248.250947 
L 352.108052 241.313308 
L 398.487273 257.741327 
" style="fill:none;stroke:#4c72b0;stroke-linecap:round;stroke-width:1.5;"/>
    <defs>
     <path d="M 0 -3 
L -3 3 
L 3 3 
z
" id="mff7ef7c7e3" style="stroke:#4c72b0;stroke-linejoin:miter;"/>
    </defs>
    <g clip-path="url(#p290e100f2b)">
     <use style="fill:#4c72b0;stroke:#4c72b0;stroke-linejoin:miter;" x="73.832727" xlink:href="#mff7ef7c7e3" y="273.481158"/>
     <use style="fill:#4c72b0;stroke:#4c72b0;stroke-linejoin:miter;" x="120.211948" xlink:href="#mff7ef7c7e3" y="280.716263"/>
     <use style="fill:#4c72b0;stroke:#4c72b0;stroke-linejoin:miter;" x="166.591169" xlink:href="#mff7ef7c7e3" y="282.954628"/>
     <use style="fill:#4c72b0;stroke:#4c72b0;stroke-linejoin:miter;" x="212.97039" xlink:href="#mff7ef7c7e3" y="268.577613"/>
     <use style="fill:#4c72b0;stroke:#4c72b0;stroke-linejoin:miter;" x="259.34961" xlink:href="#mff7ef7c7e3" y="251.499519"/>
     <use style="fill:#4c72b0;stroke:#4c72b0;stroke-linejoin:miter;" x="305.728831" xlink:href="#mff7ef7c7e3" y="248.250947"/>
     <use style="fill:#4c72b0;stroke:#4c72b0;stroke-linejoin:miter;" x="352.108052" xlink:href="#mff7ef7c7e3" y="241.313308"/>
     <use style="fill:#4c72b0;stroke:#4c72b0;stroke-linejoin:miter;" x="398.487273" xlink:href="#mff7ef7c7e3" y="257.741327"/>
    </g>
   </g>
   <g id="patch_3">
    <path d="M 57.6 307.584 
L 57.6 41.472 
" style="fill:none;stroke:#ffffff;stroke-linecap:square;stroke-linejoin:miter;stroke-width:1.25;"/>
   </g>
   <g id="patch_4">
    <path d="M 414.72 307.584 
L 414.72 41.472 
" style="fill:none;stroke:#ffffff;stroke-linecap:square;stroke-linejoin:miter;stroke-width:1.25;"/>
   </g>
   <g id="patch_5">
    <path d="M 57.6 307.584 
L 414.72 307.584 
" style="fill:none;stroke:#ffffff;stroke-linecap:square;stroke-linejoin:miter;stroke-width:1.25;"/>
   </g>
   <g id="patch_6">
    <path d="M 57.6 41.472 
L 414.72 41.472 
" style="fill:none;stroke:#ffffff;stroke-linecap:square;stroke-linejoin:miter;stroke-width:1.25;"/>
   </g>
   <g id="legend_1">
    <g id="patch_7">
     <path d="M 355.32 79.422 
L 407.02 79.422 
Q 409.22 79.422 409.22 77.222 
L 409.22 49.172 
Q 409.22 46.972 407.02 46.972 
L 355.32 46.972 
Q 353.12 46.972 353.12 49.172 
L 353.12 77.222 
Q 353.12 79.422 355.32 79.422 
z
" style="fill:#eaeaf2;opacity:0.8;stroke:#cccccc;stroke-linejoin:miter;"/>
    </g>
    <g id="line2d_17">
     <path d="M 357.52 55.222 
L 379.52 55.222 
" style="fill:none;stroke:#dd8452;stroke-linecap:round;stroke-width:1.5;"/>
    </g>
    <g id="line2d_18">
     <g>
      <use style="fill:#dd8452;stroke:#dd8452;stroke-linejoin:miter;" x="368.52" xlink:href="#m1907b758cc" y="55.222"/>
     </g>
    </g>
    <g id="text_15">
     <!-- CPU -->
     <defs>
      <path d="M 46.484375 28.515625 
Q 46.09375 13.671875 40.234375 7.421875 
Q 34.375 1.171875 26.171875 1.171875 
Q 16.796875 1.171875 10.15625 8.78125 
Q 3.515625 16.40625 3.515625 33.203125 
Q 3.515625 51.5625 9.953125 60.546875 
Q 16.40625 69.53125 26.5625 69.53125 
Q 35.15625 69.53125 40.8125 63.078125 
Q 46.484375 56.640625 46.09375 44.921875 
L 37.5 44.921875 
Q 37.5 53.515625 34.765625 57.8125 
Q 32.03125 62.109375 26.5625 62.109375 
Q 20.3125 62.109375 16.59375 55.65625 
Q 12.890625 49.21875 12.890625 33.984375 
Q 12.890625 19.921875 16.59375 14.25 
Q 20.3125 8.59375 26.171875 8.59375 
Q 30.46875 8.59375 33.984375 12.6875 
Q 37.5 16.796875 37.5 28.515625 
z
" id="SimHei-67"/>
      <path d="M 46.09375 48.4375 
Q 46.09375 39.0625 40.625 33.59375 
Q 35.15625 28.125 25.390625 28.125 
L 14.0625 28.125 
L 14.0625 1.953125 
L 5.078125 1.953125 
L 5.078125 68.75 
L 25.390625 68.75 
Q 35.15625 68.75 40.625 63.28125 
Q 46.09375 57.8125 46.09375 48.4375 
z
M 37.109375 48.4375 
Q 37.109375 55.859375 33.59375 58.59375 
Q 30.078125 61.328125 23.046875 61.328125 
L 14.0625 61.328125 
L 14.0625 35.546875 
L 23.046875 35.546875 
Q 30.078125 35.546875 33.59375 38.28125 
Q 37.109375 41.015625 37.109375 48.4375 
z
" id="SimHei-80"/>
      <path d="M 44.921875 21.484375 
Q 44.921875 12.109375 40.03125 6.640625 
Q 35.15625 1.171875 24.609375 1.171875 
Q 14.0625 1.171875 9.171875 6.640625 
Q 4.296875 12.109375 4.296875 21.484375 
L 4.296875 68.75 
L 13.28125 68.75 
L 13.28125 21.484375 
Q 13.28125 14.84375 16.40625 11.71875 
Q 19.53125 8.59375 24.609375 8.59375 
Q 29.6875 8.59375 32.8125 11.71875 
Q 35.9375 14.84375 35.9375 21.484375 
L 35.9375 68.75 
L 44.921875 68.75 
z
" id="SimHei-85"/>
     </defs>
     <g style="fill:#262626;" transform="translate(388.32 59.072)scale(0.11 -0.11)">
      <use xlink:href="#SimHei-67"/>
      <use x="50" xlink:href="#SimHei-80"/>
      <use x="100" xlink:href="#SimHei-85"/>
     </g>
    </g>
    <g id="line2d_19">
     <path d="M 357.52 69.797 
L 379.52 69.797 
" style="fill:none;stroke:#4c72b0;stroke-linecap:round;stroke-width:1.5;"/>
    </g>
    <g id="line2d_20">
     <g>
      <use style="fill:#4c72b0;stroke:#4c72b0;stroke-linejoin:miter;" x="368.52" xlink:href="#mff7ef7c7e3" y="69.797"/>
     </g>
    </g>
    <g id="text_16">
     <!-- GPU -->
     <defs>
      <path d="M 44.53125 1.171875 
L 37.890625 1.171875 
L 36.71875 6.640625 
Q 35.15625 4.296875 31.828125 2.734375 
Q 28.515625 1.171875 24.609375 1.171875 
Q 16.40625 1.171875 9.953125 8.78125 
Q 3.515625 16.40625 3.515625 33.203125 
Q 3.515625 51.5625 9.375 60.546875 
Q 15.234375 69.53125 25.390625 69.53125 
Q 34.375 69.53125 39.453125 62.890625 
Q 44.53125 56.25 44.53125 45.703125 
L 35.9375 45.703125 
Q 35.9375 53.90625 33.203125 58 
Q 30.46875 62.109375 25.390625 62.109375 
Q 19.140625 62.109375 16.015625 55.65625 
Q 12.890625 49.21875 12.890625 33.984375 
Q 12.890625 19.53125 16.796875 14.0625 
Q 20.703125 8.59375 25.78125 8.59375 
Q 30.859375 8.59375 33.78125 12.296875 
Q 36.71875 16.015625 36.71875 23.828125 
L 36.71875 28.125 
L 24.609375 28.125 
L 24.609375 35.546875 
L 44.53125 35.546875 
z
" id="SimHei-71"/>
     </defs>
     <g style="fill:#262626;" transform="translate(388.32 73.647)scale(0.11 -0.11)">
      <use xlink:href="#SimHei-71"/>
      <use x="50" xlink:href="#SimHei-80"/>
      <use x="100" xlink:href="#SimHei-85"/>
     </g>
    </g>
   </g>
  </g>
 </g>
 <defs>
  <clipPath id="p290e100f2b">
   <rect height="266.112" width="357.12" x="57.6" y="41.472"/>
  </clipPath>
 </defs>
</svg>
